<mxfile host="app.diagrams.net" agent="Mozilla/5.0 (X11; Ubuntu; Linux x86_64; rv:143.0) Gecko/20100101 Firefox/143.0" version="28.2.5">
  <diagram name="Page-1" id="wbGjTbeJYBRWITikLTKt">
    <mxGraphModel dx="2740" dy="1685" grid="1" gridSize="10" guides="1" tooltips="1" connect="1" arrows="1" fold="1" page="1" pageScale="1" pageWidth="850" pageHeight="1100" math="0" shadow="0">
      <root>
        <mxCell id="0" />
        <mxCell id="1" parent="0" />
        <mxCell id="BWJDgSnmsfaAYrhF108L-66" value="Person" style="swimlane;fontStyle=1;align=center;verticalAlign=top;childLayout=stackLayout;horizontal=1;startSize=26;horizontalStack=0;resizeParent=1;resizeParentMax=0;resizeLast=0;collapsible=1;marginBottom=0;whiteSpace=wrap;html=1;" parent="1" vertex="1">
          <mxGeometry x="-640" y="150" width="160" height="140" as="geometry" />
        </mxCell>
        <mxCell id="BWJDgSnmsfaAYrhF108L-67" value="&lt;div&gt;- Id : int&lt;/div&gt;&lt;div&gt;- Name : String&lt;/div&gt;&lt;div&gt;- Notes : String&lt;/div&gt;&lt;div&gt;- Image : BufferedImage&lt;/div&gt;&lt;div&gt;&lt;br&gt;&lt;/div&gt;" style="text;strokeColor=none;fillColor=none;align=left;verticalAlign=top;spacingLeft=4;spacingRight=4;overflow=hidden;rotatable=0;points=[[0,0.5],[1,0.5]];portConstraint=eastwest;whiteSpace=wrap;html=1;" parent="BWJDgSnmsfaAYrhF108L-66" vertex="1">
          <mxGeometry y="26" width="160" height="64" as="geometry" />
        </mxCell>
        <mxCell id="BWJDgSnmsfaAYrhF108L-68" value="" style="line;strokeWidth=1;fillColor=none;align=left;verticalAlign=middle;spacingTop=-1;spacingLeft=3;spacingRight=3;rotatable=0;labelPosition=right;points=[];portConstraint=eastwest;strokeColor=inherit;" parent="BWJDgSnmsfaAYrhF108L-66" vertex="1">
          <mxGeometry y="90" width="160" height="8" as="geometry" />
        </mxCell>
        <mxCell id="BWJDgSnmsfaAYrhF108L-69" value="&lt;div&gt;+ Setters : void&amp;nbsp;&lt;/div&gt;&lt;div&gt;+ Getters : //several&lt;/div&gt;" style="text;strokeColor=none;fillColor=none;align=left;verticalAlign=top;spacingLeft=4;spacingRight=4;overflow=hidden;rotatable=0;points=[[0,0.5],[1,0.5]];portConstraint=eastwest;whiteSpace=wrap;html=1;" parent="BWJDgSnmsfaAYrhF108L-66" vertex="1">
          <mxGeometry y="98" width="160" height="42" as="geometry" />
        </mxCell>
        <mxCell id="BWJDgSnmsfaAYrhF108L-71" value="Relationship" style="swimlane;fontStyle=1;align=center;verticalAlign=top;childLayout=stackLayout;horizontal=1;startSize=26;horizontalStack=0;resizeParent=1;resizeParentMax=0;resizeLast=0;collapsible=1;marginBottom=0;whiteSpace=wrap;html=1;" parent="1" vertex="1">
          <mxGeometry x="-450" y="150" width="160" height="160" as="geometry" />
        </mxCell>
        <mxCell id="BWJDgSnmsfaAYrhF108L-72" value="&lt;div&gt;- Id : int&lt;/div&gt;&lt;div&gt;- HeadId : int&lt;/div&gt;&lt;div&gt;- TailId : int&lt;/div&gt;&lt;div&gt;- Rating : int&lt;/div&gt;&lt;div&gt;- Notes : String&lt;/div&gt;" style="text;strokeColor=none;fillColor=none;align=left;verticalAlign=top;spacingLeft=4;spacingRight=4;overflow=hidden;rotatable=0;points=[[0,0.5],[1,0.5]];portConstraint=eastwest;whiteSpace=wrap;html=1;" parent="BWJDgSnmsfaAYrhF108L-71" vertex="1">
          <mxGeometry y="26" width="160" height="84" as="geometry" />
        </mxCell>
        <mxCell id="BWJDgSnmsfaAYrhF108L-73" value="" style="line;strokeWidth=1;fillColor=none;align=left;verticalAlign=middle;spacingTop=-1;spacingLeft=3;spacingRight=3;rotatable=0;labelPosition=right;points=[];portConstraint=eastwest;strokeColor=inherit;" parent="BWJDgSnmsfaAYrhF108L-71" vertex="1">
          <mxGeometry y="110" width="160" height="8" as="geometry" />
        </mxCell>
        <mxCell id="BWJDgSnmsfaAYrhF108L-74" value="&lt;div&gt;+ Setters : void&lt;/div&gt;&lt;div&gt;+ Getters : //several&amp;nbsp;&lt;/div&gt;" style="text;strokeColor=none;fillColor=none;align=left;verticalAlign=top;spacingLeft=4;spacingRight=4;overflow=hidden;rotatable=0;points=[[0,0.5],[1,0.5]];portConstraint=eastwest;whiteSpace=wrap;html=1;" parent="BWJDgSnmsfaAYrhF108L-71" vertex="1">
          <mxGeometry y="118" width="160" height="42" as="geometry" />
        </mxCell>
        <mxCell id="BWJDgSnmsfaAYrhF108L-88" value="Group" style="swimlane;fontStyle=1;align=center;verticalAlign=top;childLayout=stackLayout;horizontal=1;startSize=26;horizontalStack=0;resizeParent=1;resizeParentMax=0;resizeLast=0;collapsible=1;marginBottom=0;whiteSpace=wrap;html=1;" parent="1" vertex="1">
          <mxGeometry x="-260" y="150" width="200" height="130" as="geometry" />
        </mxCell>
        <mxCell id="BWJDgSnmsfaAYrhF108L-89" value="&lt;div&gt;-&amp;nbsp; Person Id List :&amp;nbsp;ArrayList&amp;lt;int&amp;gt;&amp;nbsp;&lt;/div&gt;" style="text;strokeColor=none;fillColor=none;align=left;verticalAlign=top;spacingLeft=4;spacingRight=4;overflow=hidden;rotatable=0;points=[[0,0.5],[1,0.5]];portConstraint=eastwest;whiteSpace=wrap;html=1;" parent="BWJDgSnmsfaAYrhF108L-88" vertex="1">
          <mxGeometry y="26" width="200" height="24" as="geometry" />
        </mxCell>
        <mxCell id="BWJDgSnmsfaAYrhF108L-90" value="" style="line;strokeWidth=1;fillColor=none;align=left;verticalAlign=middle;spacingTop=-1;spacingLeft=3;spacingRight=3;rotatable=0;labelPosition=right;points=[];portConstraint=eastwest;strokeColor=inherit;" parent="BWJDgSnmsfaAYrhF108L-88" vertex="1">
          <mxGeometry y="50" width="200" height="8" as="geometry" />
        </mxCell>
        <mxCell id="BWJDgSnmsfaAYrhF108L-91" value="+ Setters&lt;br&gt;&lt;div&gt;+ Getters&lt;/div&gt;&lt;div&gt;+ Add Person to Group&lt;/div&gt;&lt;div&gt;+ Remove Person from Group&lt;/div&gt;" style="text;strokeColor=none;fillColor=none;align=left;verticalAlign=top;spacingLeft=4;spacingRight=4;overflow=hidden;rotatable=0;points=[[0,0.5],[1,0.5]];portConstraint=eastwest;whiteSpace=wrap;html=1;" parent="BWJDgSnmsfaAYrhF108L-88" vertex="1">
          <mxGeometry y="58" width="200" height="72" as="geometry" />
        </mxCell>
        <mxCell id="BWJDgSnmsfaAYrhF108L-105" style="edgeStyle=orthogonalEdgeStyle;rounded=0;orthogonalLoop=1;jettySize=auto;html=1;entryX=0.5;entryY=0;entryDx=0;entryDy=0;endArrow=diamond;endFill=0;" parent="1" source="BWJDgSnmsfaAYrhF108L-96" target="BWJDgSnmsfaAYrhF108L-71" edge="1">
          <mxGeometry relative="1" as="geometry" />
        </mxCell>
        <mxCell id="BWJDgSnmsfaAYrhF108L-106" style="edgeStyle=orthogonalEdgeStyle;rounded=0;orthogonalLoop=1;jettySize=auto;html=1;entryX=0.5;entryY=0;entryDx=0;entryDy=0;endArrow=diamondThin;endFill=0;exitX=1;exitY=0.5;exitDx=0;exitDy=0;" parent="1" source="BWJDgSnmsfaAYrhF108L-99" target="BWJDgSnmsfaAYrhF108L-88" edge="1">
          <mxGeometry relative="1" as="geometry">
            <Array as="points">
              <mxPoint x="-160" y="-41" />
            </Array>
          </mxGeometry>
        </mxCell>
        <mxCell id="BWJDgSnmsfaAYrhF108L-96" value="Register" style="swimlane;fontStyle=1;align=center;verticalAlign=top;childLayout=stackLayout;horizontal=1;startSize=26;horizontalStack=0;resizeParent=1;resizeParentMax=0;resizeLast=0;collapsible=1;marginBottom=0;whiteSpace=wrap;html=1;" parent="1" vertex="1">
          <mxGeometry x="-510" y="-160" width="340" height="240" as="geometry" />
        </mxCell>
        <mxCell id="BWJDgSnmsfaAYrhF108L-97" value="&lt;div&gt;- Person List : ArrayList&amp;lt;Person&amp;gt;&lt;/div&gt;&lt;div&gt;- Relationships List : ArrayList&amp;lt;Relationship&amp;gt;&lt;/div&gt;&lt;div&gt;- Groups List : ArrayList &amp;lt;Group&amp;gt;&lt;/div&gt;&lt;div&gt;- Active Group Id&lt;/div&gt;" style="text;strokeColor=none;fillColor=none;align=left;verticalAlign=top;spacingLeft=4;spacingRight=4;overflow=hidden;rotatable=0;points=[[0,0.5],[1,0.5]];portConstraint=eastwest;whiteSpace=wrap;html=1;" parent="BWJDgSnmsfaAYrhF108L-96" vertex="1">
          <mxGeometry y="26" width="340" height="64" as="geometry" />
        </mxCell>
        <mxCell id="BWJDgSnmsfaAYrhF108L-98" value="" style="line;strokeWidth=1;fillColor=none;align=left;verticalAlign=middle;spacingTop=-1;spacingLeft=3;spacingRight=3;rotatable=0;labelPosition=right;points=[];portConstraint=eastwest;strokeColor=inherit;" parent="BWJDgSnmsfaAYrhF108L-96" vertex="1">
          <mxGeometry y="90" width="340" height="8" as="geometry" />
        </mxCell>
        <mxCell id="BWJDgSnmsfaAYrhF108L-99" value="&lt;div&gt;+ Edit Group/Relationship/Person - TOO RELAX!!&lt;/div&gt;&lt;div&gt;+ Add Group/Relationship/Person-&amp;nbsp;TOO RELAX!!&lt;/div&gt;&lt;div&gt;+ Remove Group/Relationship/Person -&amp;nbsp;TOO RELAX!!&lt;/div&gt;&lt;div&gt;+ Get Group/Relationship/Person -&amp;nbsp;TOO RELAX!!&lt;/div&gt;&lt;div&gt;+ Generate Information for Swing&amp;nbsp;OnDraw&lt;/div&gt;&lt;div&gt;- Get Unique ID for Group/Person/Relationship&lt;/div&gt;&lt;div&gt;- Call Update DB on changes made&lt;/div&gt;&lt;div&gt;+ Save All Info&lt;/div&gt;&lt;div&gt;+ Switch active Group id&lt;/div&gt;&lt;div&gt;&lt;br&gt;&lt;/div&gt;" style="text;strokeColor=none;fillColor=none;align=left;verticalAlign=top;spacingLeft=4;spacingRight=4;overflow=hidden;rotatable=0;points=[[0,0.5],[1,0.5]];portConstraint=eastwest;whiteSpace=wrap;html=1;" parent="BWJDgSnmsfaAYrhF108L-96" vertex="1">
          <mxGeometry y="98" width="340" height="142" as="geometry" />
        </mxCell>
        <mxCell id="BWJDgSnmsfaAYrhF108L-104" style="edgeStyle=orthogonalEdgeStyle;rounded=0;orthogonalLoop=1;jettySize=auto;html=1;entryX=0.5;entryY=0;entryDx=0;entryDy=0;endArrow=diamondThin;endFill=0;strokeWidth=1;jumpSize=25;jumpStyle=none;exitX=0;exitY=0.5;exitDx=0;exitDy=0;" parent="1" source="BWJDgSnmsfaAYrhF108L-99" target="BWJDgSnmsfaAYrhF108L-66" edge="1">
          <mxGeometry relative="1" as="geometry">
            <Array as="points">
              <mxPoint x="-560" y="-41" />
            </Array>
          </mxGeometry>
        </mxCell>
        <mxCell id="BWJDgSnmsfaAYrhF108L-108" value="Peristence" style="swimlane;fontStyle=1;align=center;verticalAlign=top;childLayout=stackLayout;horizontal=1;startSize=26;horizontalStack=0;resizeParent=1;resizeParentMax=0;resizeLast=0;collapsible=1;marginBottom=0;whiteSpace=wrap;html=1;" parent="1" vertex="1">
          <mxGeometry x="-770" y="-160" width="160" height="120" as="geometry" />
        </mxCell>
        <mxCell id="BWJDgSnmsfaAYrhF108L-109" value="- Local Server DB IP" style="text;strokeColor=none;fillColor=none;align=left;verticalAlign=top;spacingLeft=4;spacingRight=4;overflow=hidden;rotatable=0;points=[[0,0.5],[1,0.5]];portConstraint=eastwest;whiteSpace=wrap;html=1;" parent="BWJDgSnmsfaAYrhF108L-108" vertex="1">
          <mxGeometry y="26" width="160" height="26" as="geometry" />
        </mxCell>
        <mxCell id="BWJDgSnmsfaAYrhF108L-110" value="" style="line;strokeWidth=1;fillColor=none;align=left;verticalAlign=middle;spacingTop=-1;spacingLeft=3;spacingRight=3;rotatable=0;labelPosition=right;points=[];portConstraint=eastwest;strokeColor=inherit;" parent="BWJDgSnmsfaAYrhF108L-108" vertex="1">
          <mxGeometry y="52" width="160" height="8" as="geometry" />
        </mxCell>
        <mxCell id="BWJDgSnmsfaAYrhF108L-111" value="&lt;div&gt;- Send CRUD Requests&lt;/div&gt;&lt;div&gt;+ Load Register Data&lt;/div&gt;&lt;div&gt;+ Handle Changes&lt;/div&gt;" style="text;strokeColor=none;fillColor=none;align=left;verticalAlign=top;spacingLeft=4;spacingRight=4;overflow=hidden;rotatable=0;points=[[0,0.5],[1,0.5]];portConstraint=eastwest;whiteSpace=wrap;html=1;" parent="BWJDgSnmsfaAYrhF108L-108" vertex="1">
          <mxGeometry y="60" width="160" height="60" as="geometry" />
        </mxCell>
        <mxCell id="BWJDgSnmsfaAYrhF108L-117" value="DB" style="shape=datastore;whiteSpace=wrap;html=1;" parent="1" vertex="1">
          <mxGeometry x="-930" y="-134" width="60" height="60" as="geometry" />
        </mxCell>
        <mxCell id="BWJDgSnmsfaAYrhF108L-118" style="edgeStyle=orthogonalEdgeStyle;rounded=0;orthogonalLoop=1;jettySize=auto;html=1;entryX=1;entryY=0.5;entryDx=0;entryDy=0;" parent="1" source="BWJDgSnmsfaAYrhF108L-110" target="BWJDgSnmsfaAYrhF108L-117" edge="1">
          <mxGeometry relative="1" as="geometry" />
        </mxCell>
        <mxCell id="BWJDgSnmsfaAYrhF108L-119" style="edgeStyle=orthogonalEdgeStyle;rounded=0;orthogonalLoop=1;jettySize=auto;html=1;entryX=0.982;entryY=0.447;entryDx=0;entryDy=0;entryPerimeter=0;endArrow=block;endFill=0;dashed=1;dashPattern=8 8;startArrow=block;startFill=1;" parent="1" source="BWJDgSnmsfaAYrhF108L-97" target="BWJDgSnmsfaAYrhF108L-110" edge="1">
          <mxGeometry relative="1" as="geometry" />
        </mxCell>
        <mxCell id="BWJDgSnmsfaAYrhF108L-133" style="edgeStyle=orthogonalEdgeStyle;rounded=0;orthogonalLoop=1;jettySize=auto;html=1;entryX=0.5;entryY=0;entryDx=0;entryDy=0;dashed=1;dashPattern=8 8;" parent="1" source="BWJDgSnmsfaAYrhF108L-124" target="BWJDgSnmsfaAYrhF108L-96" edge="1">
          <mxGeometry relative="1" as="geometry" />
        </mxCell>
        <mxCell id="BWJDgSnmsfaAYrhF108L-124" value="UiRequestHandler" style="swimlane;fontStyle=1;align=center;verticalAlign=top;childLayout=stackLayout;horizontal=1;startSize=26;horizontalStack=0;resizeParent=1;resizeParentMax=0;resizeLast=0;collapsible=1;marginBottom=0;whiteSpace=wrap;html=1;" parent="1" vertex="1">
          <mxGeometry x="-380" y="-450" width="280" height="210" as="geometry" />
        </mxCell>
        <mxCell id="BWJDgSnmsfaAYrhF108L-125" value="&lt;div&gt;(No fields that I can think of yet)&lt;/div&gt;" style="text;strokeColor=none;fillColor=none;align=left;verticalAlign=top;spacingLeft=4;spacingRight=4;overflow=hidden;rotatable=0;points=[[0,0.5],[1,0.5]];portConstraint=eastwest;whiteSpace=wrap;html=1;" parent="BWJDgSnmsfaAYrhF108L-124" vertex="1">
          <mxGeometry y="26" width="280" height="44" as="geometry" />
        </mxCell>
        <mxCell id="BWJDgSnmsfaAYrhF108L-126" value="" style="line;strokeWidth=1;fillColor=none;align=left;verticalAlign=middle;spacingTop=-1;spacingLeft=3;spacingRight=3;rotatable=0;labelPosition=right;points=[];portConstraint=eastwest;strokeColor=inherit;" parent="BWJDgSnmsfaAYrhF108L-124" vertex="1">
          <mxGeometry y="70" width="280" height="8" as="geometry" />
        </mxCell>
        <mxCell id="BWJDgSnmsfaAYrhF108L-127" value="&lt;div&gt;+ Process CRUD UI request&amp;nbsp;&lt;/div&gt;&lt;div&gt;+ Get OnDraw info&lt;/div&gt;&lt;div&gt;+ Handle requests such as:&amp;nbsp;&amp;nbsp;&lt;/div&gt;&lt;div&gt;&lt;span style=&quot;white-space: pre;&quot;&gt;&#x9;&lt;/span&gt;+&quot;Generate Activity&quot;&lt;/div&gt;&lt;div&gt;&lt;span style=&quot;white-space: pre;&quot;&gt;&#x9;&lt;/span&gt;+ &quot;Get most popular person&quot;&amp;nbsp;&lt;/div&gt;&lt;div&gt;&lt;span style=&quot;white-space: pre;&quot;&gt;&#x9;&lt;/span&gt;+ &quot;Get relationships that need working on&quot;&lt;/div&gt;&lt;span style=&quot;white-space: pre;&quot;&gt;&#x9;&lt;/span&gt;+ &quot;Get cliques of the Group&quot; ( Bisericuțe)" style="text;strokeColor=none;fillColor=none;align=left;verticalAlign=top;spacingLeft=4;spacingRight=4;overflow=hidden;rotatable=0;points=[[0,0.5],[1,0.5]];portConstraint=eastwest;whiteSpace=wrap;html=1;" parent="BWJDgSnmsfaAYrhF108L-124" vertex="1">
          <mxGeometry y="78" width="280" height="132" as="geometry" />
        </mxCell>
        <mxCell id="BWJDgSnmsfaAYrhF108L-128" value="UI" style="swimlane;fontStyle=1;align=center;verticalAlign=top;childLayout=stackLayout;horizontal=1;startSize=26;horizontalStack=0;resizeParent=1;resizeParentMax=0;resizeLast=0;collapsible=1;marginBottom=0;whiteSpace=wrap;html=1;" parent="1" vertex="1">
          <mxGeometry x="-585" y="-600" width="160" height="190" as="geometry" />
        </mxCell>
        <mxCell id="BWJDgSnmsfaAYrhF108L-129" value="&lt;div&gt;+ Buttons: JButton&lt;/div&gt;&lt;div&gt;+ Text Fields : JTextField&lt;/div&gt;&lt;div&gt;+ Text areas : JTextArea&lt;/div&gt;&lt;div&gt;+ Social Graph Area&amp;nbsp; : Custom JPannel&lt;/div&gt;" style="text;strokeColor=none;fillColor=none;align=left;verticalAlign=top;spacingLeft=4;spacingRight=4;overflow=hidden;rotatable=0;points=[[0,0.5],[1,0.5]];portConstraint=eastwest;whiteSpace=wrap;html=1;" parent="BWJDgSnmsfaAYrhF108L-128" vertex="1">
          <mxGeometry y="26" width="160" height="84" as="geometry" />
        </mxCell>
        <mxCell id="BWJDgSnmsfaAYrhF108L-130" value="" style="line;strokeWidth=1;fillColor=none;align=left;verticalAlign=middle;spacingTop=-1;spacingLeft=3;spacingRight=3;rotatable=0;labelPosition=right;points=[];portConstraint=eastwest;strokeColor=inherit;" parent="BWJDgSnmsfaAYrhF108L-128" vertex="1">
          <mxGeometry y="110" width="160" height="8" as="geometry" />
        </mxCell>
        <mxCell id="BWJDgSnmsfaAYrhF108L-131" value="&lt;div&gt;- Action Listenters that invoke UiRequestHandler&lt;/div&gt;&lt;div&gt;+ Execute OnDraw Method&lt;/div&gt;" style="text;strokeColor=none;fillColor=none;align=left;verticalAlign=top;spacingLeft=4;spacingRight=4;overflow=hidden;rotatable=0;points=[[0,0.5],[1,0.5]];portConstraint=eastwest;whiteSpace=wrap;html=1;" parent="BWJDgSnmsfaAYrhF108L-128" vertex="1">
          <mxGeometry y="118" width="160" height="72" as="geometry" />
        </mxCell>
        <mxCell id="BWJDgSnmsfaAYrhF108L-132" style="edgeStyle=orthogonalEdgeStyle;rounded=0;orthogonalLoop=1;jettySize=auto;html=1;entryX=0.5;entryY=0;entryDx=0;entryDy=0;dashed=1;dashPattern=8 8;exitX=1;exitY=0.5;exitDx=0;exitDy=0;" parent="1" source="BWJDgSnmsfaAYrhF108L-128" target="BWJDgSnmsfaAYrhF108L-124" edge="1">
          <mxGeometry relative="1" as="geometry">
            <Array as="points">
              <mxPoint x="-425" y="-510" />
              <mxPoint x="-240" y="-510" />
            </Array>
          </mxGeometry>
        </mxCell>
        <mxCell id="BWJDgSnmsfaAYrhF108L-140" style="edgeStyle=orthogonalEdgeStyle;rounded=0;orthogonalLoop=1;jettySize=auto;html=1;entryX=0.5;entryY=0;entryDx=0;entryDy=0;" parent="1" source="BWJDgSnmsfaAYrhF108L-135" target="BWJDgSnmsfaAYrhF108L-108" edge="1">
          <mxGeometry relative="1" as="geometry" />
        </mxCell>
        <mxCell id="BWJDgSnmsfaAYrhF108L-141" style="edgeStyle=orthogonalEdgeStyle;rounded=0;orthogonalLoop=1;jettySize=auto;html=1;entryX=0;entryY=0.5;entryDx=0;entryDy=0;" parent="1" source="BWJDgSnmsfaAYrhF108L-135" target="BWJDgSnmsfaAYrhF108L-129" edge="1">
          <mxGeometry relative="1" as="geometry" />
        </mxCell>
        <mxCell id="BWJDgSnmsfaAYrhF108L-135" value="Main" style="swimlane;fontStyle=1;align=center;verticalAlign=top;childLayout=stackLayout;horizontal=1;startSize=26;horizontalStack=0;resizeParent=1;resizeParentMax=0;resizeLast=0;collapsible=1;marginBottom=0;whiteSpace=wrap;html=1;" parent="1" vertex="1">
          <mxGeometry x="-840" y="-600" width="160" height="130" as="geometry" />
        </mxCell>
        <mxCell id="BWJDgSnmsfaAYrhF108L-136" value="(none)" style="text;strokeColor=none;fillColor=none;align=left;verticalAlign=top;spacingLeft=4;spacingRight=4;overflow=hidden;rotatable=0;points=[[0,0.5],[1,0.5]];portConstraint=eastwest;whiteSpace=wrap;html=1;" parent="BWJDgSnmsfaAYrhF108L-135" vertex="1">
          <mxGeometry y="26" width="160" height="26" as="geometry" />
        </mxCell>
        <mxCell id="BWJDgSnmsfaAYrhF108L-137" value="" style="line;strokeWidth=1;fillColor=none;align=left;verticalAlign=middle;spacingTop=-1;spacingLeft=3;spacingRight=3;rotatable=0;labelPosition=right;points=[];portConstraint=eastwest;strokeColor=inherit;" parent="BWJDgSnmsfaAYrhF108L-135" vertex="1">
          <mxGeometry y="52" width="160" height="8" as="geometry" />
        </mxCell>
        <mxCell id="BWJDgSnmsfaAYrhF108L-138" value="&lt;div&gt;+ Main initialize method&lt;/div&gt;&lt;div&gt;+ Request Persistence Load&lt;/div&gt;&lt;div&gt;+ Pass control to UI&lt;/div&gt;" style="text;strokeColor=none;fillColor=none;align=left;verticalAlign=top;spacingLeft=4;spacingRight=4;overflow=hidden;rotatable=0;points=[[0,0.5],[1,0.5]];portConstraint=eastwest;whiteSpace=wrap;html=1;" parent="BWJDgSnmsfaAYrhF108L-135" vertex="1">
          <mxGeometry y="60" width="160" height="70" as="geometry" />
        </mxCell>
        <mxCell id="Jdq0jiGET5e7d8srMERb-17" value="New mechanic ideea:&lt;br&gt;&lt;div&gt;Other items can request info only from &quot;Active Group&quot;&lt;/div&gt;&lt;div&gt;This brings additional filtration and concentration of functions&lt;/div&gt;&lt;div&gt;- Could do &quot;all persons&quot; though.&lt;/div&gt;" style="text;html=1;align=center;verticalAlign=middle;whiteSpace=wrap;rounded=0;" vertex="1" parent="1">
          <mxGeometry x="-150" y="-134" width="330" height="174" as="geometry" />
        </mxCell>
      </root>
    </mxGraphModel>
  </diagram>
</mxfile>
